<svg width="23" height="24" fill="none" xmlns="http://www.w3.org/2000/svg"><path d="M22.088 20.43c.059-1.445.168-6.451-.318-8.163l-1.685-5.944c-.227-.8-1.093-1.28-1.93-1.068-.836.212-1.332 1.036-1.105 1.837l.719 2.534a.278.278 0 0 1-.21.343.298.298 0 0 1-.362-.198L16.074 5.81c-.227-.8-1.092-1.28-1.93-1.068-.836.212-1.332 1.036-1.105 1.837l.8 2.823a.278.278 0 0 1-.209.343.298.298 0 0 1-.362-.198l-1.123-3.96c-.226-.801-1.092-1.28-1.929-1.068-.836.212-1.333 1.035-1.106 1.836l.801 2.825a.279.279 0 0 1-.209.342.298.298 0 0 1-.362-.198L7.034 1.192C6.807.39 5.942-.088 5.104.124 4.269.336 3.773 1.16 4 1.961l3.57 12.592a.273.273 0 0 1-.114.3.314.314 0 0 1-.336.005l-4.645-2.943-.053-.03a1.674 1.674 0 0 0-1.165-.132l-.01.002a1.562 1.562 0 0 0-.948.685c-.256.42-.35 1.122.654 2.084 1.526 1.46 3.123 2.806 4.538 3.998 1.052.887 2.045 1.724 2.814 2.448.492.463 1.602 1.726 2.206 2.39l11.578-2.93z" fill="#F0CAB5"/></svg>