<svg width="30" height="30" fill="none" xmlns="http://www.w3.org/2000/svg"><circle cx="15" cy="15" r="15" fill="#F3F7F4"/><path d="M16.778 7h-3.556c-1.65 0-3.233.664-4.4 1.845A6.34 6.34 0 0 0 7 13.3V16c0 1.193.333 2.362.963 3.37a6.248 6.248 0 0 0 2.593 2.326v3.008a.304.304 0 0 0 .183.273.294.294 0 0 0 .321-.061l2.582-2.615h3.136c1.65 0 3.233-.664 4.4-1.845A6.34 6.34 0 0 0 23 16v-2.7a6.341 6.341 0 0 0-1.822-4.455A6.184 6.184 0 0 0 16.778 7zm2.329 11.809-.89.9c-.946.938-3.417-.133-5.595-2.385-2.178-2.253-3.133-4.78-2.222-5.718l.889-.9a.929.929 0 0 1 1.264.014l1.298 1.35a.887.887 0 0 1 .22.827.887.887 0 0 1-.575.628.85.85 0 0 0-.492.402.87.87 0 0 0-.082.633c.222 1 1.476 2.25 2.41 2.496.21.05.431.022.622-.08a.896.896 0 0 0 .415-.478.883.883 0 0 1 .64-.572.862.862 0 0 1 .815.257l1.296 1.35a.952.952 0 0 1-.013 1.276zm-3.298-7.534a2.07 2.07 0 0 0-.265.016.293.293 0 0 1-.292-.154.302.302 0 0 1 .228-.442 2.948 2.948 0 0 1 2.427.86 3.023 3.023 0 0 1 .853 2.454.303.303 0 0 1-.212.255.295.295 0 0 1-.367-.204.304.304 0 0 1-.01-.116 2.42 2.42 0 0 0-.683-1.966 2.36 2.36 0 0 0-1.68-.703zm1.778 2.401a.303.303 0 0 1-.096.196.296.296 0 0 1-.498-.196c0-.318-.124-.623-.347-.848a1.177 1.177 0 0 0-.837-.351.295.295 0 0 1-.298-.18.305.305 0 0 1 .07-.343.296.296 0 0 1 .228-.078c.471 0 .924.19 1.257.527.333.338.52.796.52 1.273zm2.26.974a.304.304 0 0 1-.13.203.296.296 0 0 1-.46-.22.304.304 0 0 1 .012-.122 3.623 3.623 0 0 0-.946-3.376 3.533 3.533 0 0 0-2.514-1.055h-.276a.292.292 0 0 1-.215-.071.301.301 0 0 1 .17-.527 4.13 4.13 0 0 1 3.254 1.221 4.235 4.235 0 0 1 1.216 2.973c0 .328-.037.655-.111.974z" fill="#105720"/></svg>