<svg width="30" height="30" fill="none" xmlns="http://www.w3.org/2000/svg"><circle cx="15" cy="15" r="15" fill="#F3F7F4"/><path d="M14.996 7a7.998 7.998 0 0 0-6.477 12.69l-1 2.972 3.078-.984A7.999 7.999 0 1 0 18.587 7.85 7.998 7.998 0 0 0 14.996 7zm4.251 11.314-.852.852c-.895.896-3.271-.09-5.377-2.2-2.106-2.11-3.05-4.48-2.198-5.366l.852-.852a.893.893 0 0 1 1.21 0L14.138 12a.834.834 0 0 1-.314 1.388.814.814 0 0 0-.538.988c.224.94 1.434 2.106 2.332 2.33a.853.853 0 0 0 .978-.544.835.835 0 0 1 1.4-.314l1.253 1.256a.894.894 0 0 1-.002 1.21z" fill="#105720"/></svg>